<svg width="11" height="18" viewBox="0 0 11 18" fill="none" xmlns="http://www.w3.org/2000/svg">
<path d="M0.974554 9.05078C0.974554 8.80664 1.07221 8.5918 1.25776 8.40625L8.99213 0.83789C9.16791 0.662109 9.38276 0.574218 9.63666 0.574218C10.1347 0.574218 10.5253 0.955078 10.5253 1.46289C10.5253 1.7168 10.4277 1.93164 10.2714 2.09766L3.16205 9.05078L10.2714 16.0039C10.4277 16.1699 10.5253 16.3945 10.5253 16.6387C10.5253 17.1465 10.1347 17.5273 9.63666 17.5273C9.38276 17.5273 9.16791 17.4395 8.99213 17.2734L1.25776 9.69531C1.07221 9.51953 0.974554 9.29492 0.974554 9.05078Z" fill="white"/>
</svg>
