<svg width="15" height="15" viewBox="0 0 15 15" fill="none" xmlns="http://www.w3.org/2000/svg">
<path d="M6.31689 12.0186C3.21875 12.0186 0.68457 9.48438 0.68457 6.38623C0.68457 3.28076 3.22607 0.753906 6.31689 0.753906C9.41504 0.753906 11.9492 3.28809 11.9492 6.38623C11.9492 7.66797 11.5171 8.84717 10.792 9.79932L14.2417 13.2563C14.4028 13.4102 14.4761 13.6226 14.4761 13.8423C14.4761 14.311 14.1392 14.6772 13.6631 14.6772C13.436 14.6772 13.2236 14.5967 13.0625 14.4355L9.59082 10.9639C8.66797 11.623 7.54004 12.0186 6.31689 12.0186ZM6.31689 10.8027C8.73389 10.8027 10.7334 8.80322 10.7334 6.38623C10.7334 3.96924 8.73389 1.96973 6.31689 1.96973C3.8999 1.96973 1.90039 3.96924 1.90039 6.38623C1.90039 8.80322 3.8999 10.8027 6.31689 10.8027Z" fill="#808080"/>
</svg>
